<svg width="285" height="50" viewBox="0 0 285 50" fill="none" xmlns="http://www.w3.org/2000/svg">
<rect x="0.5" y="0.5" width="284" height="49" rx="7.5" fill="#FAFBFE" stroke="#F0F0F0"/>
<path fill-rule="evenodd" clip-rule="evenodd" d="M25.5999 17.7999C22.949 17.7999 20.8 19.9489 20.8 22.5999C20.8 25.2509 22.949 27.3999 25.5999 27.3999C28.2509 27.3999 30.3999 25.2509 30.3999 22.5999C30.3999 19.9489 28.2509 17.7999 25.5999 17.7999ZM18.4 22.5999C18.4 18.6235 21.6235 15.3999 25.5999 15.3999C29.5764 15.3999 32.7999 18.6235 32.7999 22.5999C32.7999 24.1549 32.307 25.5948 31.4688 26.7717L37.2484 32.5514C37.7171 33.02 37.7171 33.7798 37.2484 34.2484C36.7798 34.7171 36.02 34.7171 35.5514 34.2484L29.7718 28.4688C28.5948 29.307 27.1549 29.7999 25.5999 29.7999C21.6235 29.7999 18.4 26.5764 18.4 22.5999Z" fill="#9CA3AF"/>
<path d="M53.602 25.114C53.602 24.162 53.8167 23.308 54.246 22.552C54.6753 21.7867 55.2587 21.1893 55.996 20.76C56.7427 20.3307 57.5687 20.116 58.474 20.116C59.538 20.116 60.4667 20.3727 61.26 20.886C62.0533 21.3993 62.632 22.1273 62.996 23.07H61.47C61.1993 22.482 60.8073 22.0293 60.294 21.712C59.79 21.3947 59.1833 21.236 58.474 21.236C57.7927 21.236 57.1813 21.3947 56.64 21.712C56.0987 22.0293 55.674 22.482 55.366 23.07C55.058 23.6487 54.904 24.33 54.904 25.114C54.904 25.8887 55.058 26.57 55.366 27.158C55.674 27.7367 56.0987 28.1847 56.64 28.502C57.1813 28.8193 57.7927 28.978 58.474 28.978C59.1833 28.978 59.79 28.824 60.294 28.516C60.8073 28.1987 61.1993 27.746 61.47 27.158H62.996C62.632 28.0913 62.0533 28.8147 61.26 29.328C60.4667 29.832 59.538 30.084 58.474 30.084C57.5687 30.084 56.7427 29.874 55.996 29.454C55.2587 29.0247 54.6753 28.432 54.246 27.676C53.8167 26.92 53.602 26.066 53.602 25.114ZM65.8305 21.082C65.5878 21.082 65.3825 20.998 65.2145 20.83C65.0465 20.662 64.9625 20.4567 64.9625 20.214C64.9625 19.9713 65.0465 19.766 65.2145 19.598C65.3825 19.43 65.5878 19.346 65.8305 19.346C66.0638 19.346 66.2598 19.43 66.4185 19.598C66.5865 19.766 66.6705 19.9713 66.6705 20.214C66.6705 20.4567 66.5865 20.662 66.4185 20.83C66.2598 20.998 66.0638 21.082 65.8305 21.082ZM66.4465 22.328V30H65.1725V22.328H66.4465ZM70.4518 23.378V27.9C70.4518 28.2733 70.5311 28.5393 70.6898 28.698C70.8484 28.8473 71.1238 28.922 71.5158 28.922H72.4538V30H71.3058C70.5964 30 70.0644 29.8367 69.7098 29.51C69.3551 29.1833 69.1778 28.6467 69.1778 27.9V23.378H68.1838V22.328H69.1778V20.396H70.4518V22.328H72.4538V23.378H70.4518ZM80.8854 22.328L76.2654 33.612H74.9494L76.4614 29.916L73.3674 22.328H74.7814L77.1894 28.544L79.5694 22.328H80.8854Z" fill="#ABB6C7"/>
</svg>
