<svg width="285" height="50" viewBox="0 0 285 50" fill="none" xmlns="http://www.w3.org/2000/svg">
<rect x="0.5" y="0.5" width="284" height="49" rx="7.5" fill="#FAFBFE" stroke="#F0F0F0"/>
<path fill-rule="evenodd" clip-rule="evenodd" d="M25.5999 17.7999C22.949 17.7999 20.8 19.9489 20.8 22.5999C20.8 25.2509 22.949 27.3999 25.5999 27.3999C28.2509 27.3999 30.3999 25.2509 30.3999 22.5999C30.3999 19.9489 28.2509 17.7999 25.5999 17.7999ZM18.4 22.5999C18.4 18.6235 21.6235 15.3999 25.5999 15.3999C29.5764 15.3999 32.7999 18.6235 32.7999 22.5999C32.7999 24.1549 32.307 25.5948 31.4688 26.7717L37.2484 32.5514C37.7171 33.02 37.7171 33.7798 37.2484 34.2484C36.7798 34.7171 36.02 34.7171 35.5514 34.2484L29.7718 28.4688C28.5948 29.307 27.1549 29.7999 25.5999 29.7999C21.6235 29.7999 18.4 26.5764 18.4 22.5999Z" fill="#9CA3AF"/>
<path d="M57.172 30.098C56.528 30.098 55.9493 29.986 55.436 29.762C54.932 29.5287 54.5353 29.2113 54.246 28.81C53.9567 28.3993 53.8073 27.928 53.798 27.396H55.156C55.2027 27.8533 55.3893 28.2407 55.716 28.558C56.052 28.866 56.5373 29.02 57.172 29.02C57.7787 29.02 58.2547 28.8707 58.6 28.572C58.9547 28.264 59.132 27.872 59.132 27.396C59.132 27.0227 59.0293 26.7193 58.824 26.486C58.6187 26.2527 58.362 26.0753 58.054 25.954C57.746 25.8327 57.3307 25.702 56.808 25.562C56.164 25.394 55.646 25.226 55.254 25.058C54.8713 24.89 54.54 24.6287 54.26 24.274C53.9893 23.91 53.854 23.4247 53.854 22.818C53.854 22.286 53.9893 21.8147 54.26 21.404C54.5307 20.9933 54.9087 20.676 55.394 20.452C55.8887 20.228 56.4533 20.116 57.088 20.116C58.0027 20.116 58.7493 20.3447 59.328 20.802C59.916 21.2593 60.2473 21.866 60.322 22.622H58.922C58.8753 22.2487 58.6793 21.922 58.334 21.642C57.9887 21.3527 57.5313 21.208 56.962 21.208C56.43 21.208 55.996 21.348 55.66 21.628C55.324 21.8987 55.156 22.2813 55.156 22.776C55.156 23.1307 55.254 23.42 55.45 23.644C55.6553 23.868 55.9027 24.0407 56.192 24.162C56.4907 24.274 56.906 24.4047 57.438 24.554C58.082 24.7313 58.6 24.9087 58.992 25.086C59.384 25.254 59.72 25.52 60 25.884C60.28 26.2387 60.42 26.724 60.42 27.34C60.42 27.816 60.294 28.264 60.042 28.684C59.79 29.104 59.4167 29.4447 58.922 29.706C58.4273 29.9673 57.844 30.098 57.172 30.098ZM64.1288 23.378V27.9C64.1288 28.2733 64.2081 28.5393 64.3668 28.698C64.5255 28.8473 64.8008 28.922 65.1928 28.922H66.1308V30H64.9828C64.2735 30 63.7415 29.8367 63.3868 29.51C63.0321 29.1833 62.8548 28.6467 62.8548 27.9V23.378H61.8608V22.328H62.8548V20.396H64.1288V22.328H66.1308V23.378H64.1288ZM67.4784 26.136C67.4784 25.352 67.6371 24.666 67.9544 24.078C68.2717 23.4807 68.7057 23.0187 69.2564 22.692C69.8164 22.3653 70.4371 22.202 71.1184 22.202C71.7904 22.202 72.3737 22.3467 72.8684 22.636C73.3631 22.9253 73.7317 23.2893 73.9744 23.728V22.328H75.2624V30H73.9744V28.572C73.7224 29.02 73.3444 29.3933 72.8404 29.692C72.3457 29.9813 71.7671 30.126 71.1044 30.126C70.4231 30.126 69.8071 29.958 69.2564 29.622C68.7057 29.286 68.2717 28.8147 67.9544 28.208C67.6371 27.6013 67.4784 26.9107 67.4784 26.136ZM73.9744 26.15C73.9744 25.5713 73.8577 25.0673 73.6244 24.638C73.3911 24.2087 73.0737 23.882 72.6724 23.658C72.2804 23.4247 71.8464 23.308 71.3704 23.308C70.8944 23.308 70.4604 23.42 70.0684 23.644C69.6764 23.868 69.3637 24.1947 69.1304 24.624C68.8971 25.0533 68.7804 25.5573 68.7804 26.136C68.7804 26.724 68.8971 27.2373 69.1304 27.676C69.3637 28.1053 69.6764 28.4367 70.0684 28.67C70.4604 28.894 70.8944 29.006 71.3704 29.006C71.8464 29.006 72.2804 28.894 72.6724 28.67C73.0737 28.4367 73.3911 28.1053 73.6244 27.676C73.8577 27.2373 73.9744 26.7287 73.9744 26.15ZM79.2493 23.378V27.9C79.2493 28.2733 79.3287 28.5393 79.4873 28.698C79.646 28.8473 79.9213 28.922 80.3133 28.922H81.2513V30H80.1033C79.394 30 78.862 29.8367 78.5073 29.51C78.1527 29.1833 77.9753 28.6467 77.9753 27.9V23.378H76.9813V22.328H77.9753V20.396H79.2493V22.328H81.2513V23.378H79.2493ZM90.075 25.87C90.075 26.1127 90.061 26.3693 90.033 26.64H83.901C83.9476 27.396 84.2043 27.9887 84.671 28.418C85.147 28.838 85.721 29.048 86.393 29.048C86.9436 29.048 87.401 28.922 87.765 28.67C88.1383 28.4087 88.3996 28.0633 88.549 27.634H89.921C89.7156 28.3713 89.305 28.9733 88.689 29.44C88.073 29.8973 87.3076 30.126 86.393 30.126C85.665 30.126 85.0116 29.9627 84.433 29.636C83.8636 29.3093 83.4156 28.8473 83.089 28.25C82.7623 27.6433 82.599 26.9433 82.599 26.15C82.599 25.3567 82.7576 24.6613 83.075 24.064C83.3923 23.4667 83.8356 23.0093 84.405 22.692C84.9836 22.3653 85.6463 22.202 86.393 22.202C87.121 22.202 87.765 22.3607 88.325 22.678C88.885 22.9953 89.3143 23.434 89.613 23.994C89.921 24.5447 90.075 25.17 90.075 25.87ZM88.759 25.604C88.759 25.1187 88.6516 24.7033 88.437 24.358C88.2223 24.0033 87.9283 23.7373 87.555 23.56C87.191 23.3733 86.785 23.28 86.337 23.28C85.693 23.28 85.1423 23.4853 84.685 23.896C84.237 24.3067 83.9803 24.876 83.915 25.604H88.759Z" fill="#ABB6C7"/>
<path d="M57.172 30.098C56.528 30.098 55.9493 29.986 55.436 29.762C54.932 29.5287 54.5353 29.2113 54.246 28.81C53.9567 28.3993 53.8073 27.928 53.798 27.396H55.156C55.2027 27.8533 55.3893 28.2407 55.716 28.558C56.052 28.866 56.5373 29.02 57.172 29.02C57.7787 29.02 58.2547 28.8707 58.6 28.572C58.9547 28.264 59.132 27.872 59.132 27.396C59.132 27.0227 59.0293 26.7193 58.824 26.486C58.6187 26.2527 58.362 26.0753 58.054 25.954C57.746 25.8327 57.3307 25.702 56.808 25.562C56.164 25.394 55.646 25.226 55.254 25.058C54.8713 24.89 54.54 24.6287 54.26 24.274C53.9893 23.91 53.854 23.4247 53.854 22.818C53.854 22.286 53.9893 21.8147 54.26 21.404C54.5307 20.9933 54.9087 20.676 55.394 20.452C55.8887 20.228 56.4533 20.116 57.088 20.116C58.0027 20.116 58.7493 20.3447 59.328 20.802C59.916 21.2593 60.2473 21.866 60.322 22.622H58.922C58.8753 22.2487 58.6793 21.922 58.334 21.642C57.9887 21.3527 57.5313 21.208 56.962 21.208C56.43 21.208 55.996 21.348 55.66 21.628C55.324 21.8987 55.156 22.2813 55.156 22.776C55.156 23.1307 55.254 23.42 55.45 23.644C55.6553 23.868 55.9027 24.0407 56.192 24.162C56.4907 24.274 56.906 24.4047 57.438 24.554C58.082 24.7313 58.6 24.9087 58.992 25.086C59.384 25.254 59.72 25.52 60 25.884C60.28 26.2387 60.42 26.724 60.42 27.34C60.42 27.816 60.294 28.264 60.042 28.684C59.79 29.104 59.4167 29.4447 58.922 29.706C58.4273 29.9673 57.844 30.098 57.172 30.098ZM64.1288 23.378V27.9C64.1288 28.2733 64.2081 28.5393 64.3668 28.698C64.5255 28.8473 64.8008 28.922 65.1928 28.922H66.1308V30H64.9828C64.2735 30 63.7415 29.8367 63.3868 29.51C63.0321 29.1833 62.8548 28.6467 62.8548 27.9V23.378H61.8608V22.328H62.8548V20.396H64.1288V22.328H66.1308V23.378H64.1288ZM67.4784 26.136C67.4784 25.352 67.6371 24.666 67.9544 24.078C68.2717 23.4807 68.7057 23.0187 69.2564 22.692C69.8164 22.3653 70.4371 22.202 71.1184 22.202C71.7904 22.202 72.3737 22.3467 72.8684 22.636C73.3631 22.9253 73.7317 23.2893 73.9744 23.728V22.328H75.2624V30H73.9744V28.572C73.7224 29.02 73.3444 29.3933 72.8404 29.692C72.3457 29.9813 71.7671 30.126 71.1044 30.126C70.4231 30.126 69.8071 29.958 69.2564 29.622C68.7057 29.286 68.2717 28.8147 67.9544 28.208C67.6371 27.6013 67.4784 26.9107 67.4784 26.136ZM73.9744 26.15C73.9744 25.5713 73.8577 25.0673 73.6244 24.638C73.3911 24.2087 73.0737 23.882 72.6724 23.658C72.2804 23.4247 71.8464 23.308 71.3704 23.308C70.8944 23.308 70.4604 23.42 70.0684 23.644C69.6764 23.868 69.3637 24.1947 69.1304 24.624C68.8971 25.0533 68.7804 25.5573 68.7804 26.136C68.7804 26.724 68.8971 27.2373 69.1304 27.676C69.3637 28.1053 69.6764 28.4367 70.0684 28.67C70.4604 28.894 70.8944 29.006 71.3704 29.006C71.8464 29.006 72.2804 28.894 72.6724 28.67C73.0737 28.4367 73.3911 28.1053 73.6244 27.676C73.8577 27.2373 73.9744 26.7287 73.9744 26.15ZM79.2493 23.378V27.9C79.2493 28.2733 79.3287 28.5393 79.4873 28.698C79.646 28.8473 79.9213 28.922 80.3133 28.922H81.2513V30H80.1033C79.394 30 78.862 29.8367 78.5073 29.51C78.1527 29.1833 77.9753 28.6467 77.9753 27.9V23.378H76.9813V22.328H77.9753V20.396H79.2493V22.328H81.2513V23.378H79.2493ZM90.075 25.87C90.075 26.1127 90.061 26.3693 90.033 26.64H83.901C83.9476 27.396 84.2043 27.9887 84.671 28.418C85.147 28.838 85.721 29.048 86.393 29.048C86.9436 29.048 87.401 28.922 87.765 28.67C88.1383 28.4087 88.3996 28.0633 88.549 27.634H89.921C89.7156 28.3713 89.305 28.9733 88.689 29.44C88.073 29.8973 87.3076 30.126 86.393 30.126C85.665 30.126 85.0116 29.9627 84.433 29.636C83.8636 29.3093 83.4156 28.8473 83.089 28.25C82.7623 27.6433 82.599 26.9433 82.599 26.15C82.599 25.3567 82.7576 24.6613 83.075 24.064C83.3923 23.4667 83.8356 23.0093 84.405 22.692C84.9836 22.3653 85.6463 22.202 86.393 22.202C87.121 22.202 87.765 22.3607 88.325 22.678C88.885 22.9953 89.3143 23.434 89.613 23.994C89.921 24.5447 90.075 25.17 90.075 25.87ZM88.759 25.604C88.759 25.1187 88.6516 24.7033 88.437 24.358C88.2223 24.0033 87.9283 23.7373 87.555 23.56C87.191 23.3733 86.785 23.28 86.337 23.28C85.693 23.28 85.1423 23.4853 84.685 23.896C84.237 24.3067 83.9803 24.876 83.915 25.604H88.759Z" fill="#ABB6C7"/>
</svg>
